# xmcd
#
# Track frame offsets: 
#        150
#        11014
#        24263
#        39234
#        53841
#        66722
#        80523
#        93068
#        105681
#        118878
#        131948
#        145722
#        158567
#        171858
#        185090
#        197989
#        212093
#        224897
#        238033
#        251915
#        265389
#        277665
#        291075
#        302875
#
# Disc length: 4203 seconds
#
# Revision: 0
# Processed by: cddbd v1.5.2PL0 Copyright (c) Steve Scherf et al.
# Submitted via: ExactAudioCopyFreeDBPlugin 1.0
#
DISCID=70106918
DTITLE=Various Artist - Blue Girls Vol. 1 (1924-1930)
DYEAR=1996
DGENRE=Blues
TTITLE0=Edna Johnson - I'm Drifting from You Blues
TTITLE1=Edna Johnson - A Woman Gets Tired of One Man All the Time
TTITLE2=Sadie James - Mamma, Fold Your Hands
TTITLE3=Sadie James - What Makes a Bow-Legged Woman Crazy
TTITLE4=Helen Beasley - Tia Juana Blues
TTITLE5=Helen Beasley - Rambling Mind Blues
TTITLE6=Coletha Simpson - Riverside Blues
TTITLE7=Coletha Simpson - Black Man Blues
TTITLE8=Coletha Simpson - Down South Blues
TTITLE9=Coletha Simpson - Lonesome Lonesome Blues
TTITLE10=Julia Johnson - Hard Headed Daddy
TTITLE11=Julia Johnson - Tickling Blues
TTITLE12=Alura Mack - My Kitchen Man
TTITLE13=Alura Mack - West End Blues
TTITLE14=Alura Mack - Wicked Daddy Blues
TTITLE15=Alura Mack - Loose Like That
TTITLE16=Alura Mack - Beef Blood Blues
TTITLE17=Alura Mack - Cotton Belt Blues
TTITLE18=Alura Mack - I Ain't Puttin' Out Nothin' Blues
TTITLE19=Alura Mack - The Long Lost Blues
TTITLE20=Alura Mack - Everybody's Man Is Mine
TTITLE21=Alura Mack - Monkey Blues
TTITLE22=Alura Mack - It Worries Me
TTITLE23=Alura Mack - 82 Years Blues
EXTD=
EXTT0=
EXTT1=
EXTT2=
EXTT3=
EXTT4=
EXTT5=
EXTT6=
EXTT7=
EXTT8=
EXTT9=
EXTT10=
EXTT11=
EXTT12=
EXTT13=
EXTT14=
EXTT15=
EXTT16=
EXTT17=
EXTT18=
EXTT19=
EXTT20=
EXTT21=
EXTT22=
EXTT23=
PLAYORDER=
